# xmcd CD database file
#
# Track frame offsets:
#	150
#	12680
#	29911
#	47356
#	61503
#	76835
#	94366
#	108926
#	127316
#	142820
#
# Disc length: 2097 seconds
#
# Revision: 0
# Processed by: cddbd v1.5.1PL2 Copyright (c) Steve Scherf et al.
# Submitted via: CDex 1.51
#
DISCID=82082f0a
DTITLE=Kenny McMahon - Chick Fights!
DYEAR=2002
DGENRE=Country
TTITLE0=If She Don't See My Beer, I Won't Hear Her Whine
TTITLE1=Chick Fights
TTITLE2=Men at the Bar, Unite!
TTITLE3=Too Much of a Good Thing
TTITLE4=Tendin' Bar at Hooters
TTITLE5=RV Cowboy
TTITLE6=Bar Fruit
TTITLE7=She Can Drink (Almost as Much as Me)
TTITLE8=Where's Your Sister?
TTITLE9=Wife Attack
EXTD=YEAR: 2002
EXTT0=
EXTT1=
EXTT2=
EXTT3=
EXTT4=
EXTT5=
EXTT6=
EXTT7=
EXTT8=
EXTT9=
PLAYORDER=
